<?xml version="1.0" encoding="utf-8"?>
<!-- Generator: Adobe Illustrator 25.0.0, SVG Export Plug-In . SVG Version: 6.00 Build 0)  -->
<svg version="1.1" id="Layer_1" xmlns="http://www.w3.org/2000/svg" xmlns:xlink="http://www.w3.org/1999/xlink" x="0px" y="0px"
	 viewBox="0 0 92 92" style="enable-background:new 0 0 92 92;" xml:space="preserve">
<style type="text/css">
	.st0{fill:#FFFFFF;}
</style>
<path id="XMLID_732_" class="st0" d="M73.1,68.3c1.9,1.9,1.9,4.9,0,6.8c-1,1-2.1,1.4-3.4,1.4c-1.3,0-2.4-0.4-3.4-1.4L46.9,55.7
	L27.4,75.1c-1,1-2.1,1.4-3.4,1.4s-2.4-0.4-3.4-1.4c-1.9-1.9-1.9-4.9,0-6.8l19.4-19.4L20.6,29.4c-1.9-1.9-1.9-4.9,0-6.8
	s4.9-1.9,6.8,0l19.4,19.4l19.4-19.4c1.9-1.9,4.9-1.9,6.8,0c1.9,1.9,1.9,4.9,0,6.8L53.7,48.9L73.1,68.3z"/>
</svg>
