<?xml version="1.0" encoding="utf-8"?>
<!-- Generator: Adobe Illustrator 25.0.0, SVG Export Plug-In . SVG Version: 6.00 Build 0)  -->
<svg version="1.1" id="Lag_1" xmlns="http://www.w3.org/2000/svg" xmlns:xlink="http://www.w3.org/1999/xlink" x="0px" y="0px"
	 viewBox="0 0 512 512" style="enable-background:new 0 0 512 512;" xml:space="preserve">
<style type="text/css">
	.st0{fill:#4E4E4E;}
</style>
<path class="st0" d="M451,30H298.4C292.2,12.5,275.6,0,256,0s-36.2,12.5-42.4,30H61v482h390V30z M181,60h60V45c0-8.3,6.7-15,15-15
	s15,6.7,15,15v15h60v30H181V60z M421,482H91V60h60v60h210V60h60V482z"/>
<path class="st0" d="M333.6,160.8l-69.9,69.9L145.8,348.5L114,444l95.5-31.8l187.7-187.7L333.6,160.8z M193.3,385.9l-31.8,10.6
	l10.6-31.8l112.9-112.9l21.2,21.2L193.3,385.9z M310.4,234.9l-4.2-4.2l27.4-27.4l21.2,21.2l-27.4,27.4L310.4,234.9z"/>
</svg>
